<svg version="1.1" id="Layer_1" xmlns="http://www.w3.org/2000/svg" xmlns:xlink="http://www.w3.org/1999/xlink" x="0px" y="0px"
	 width="100%" viewBox="0 0 328 287" enable-background="new 0 0 328 287" xml:space="preserve">
<path fill="#031104" opacity="1.000000" stroke="none" 
	d="
M195.000000,288.000000 
	C130.000031,288.000000 65.500061,288.000000 1.000069,288.000000 
	C1.000046,192.333405 1.000046,96.666817 1.000023,1.000172 
	C110.333199,1.000115 219.666397,1.000115 328.999695,1.000057 
	C328.999817,96.666496 328.999817,192.332993 328.999908,287.999756 
	C284.500000,288.000000 240.000000,288.000000 195.000000,288.000000 
M268.386017,85.397499 
	C265.765625,87.711418 262.781342,89.729179 260.604401,92.404007 
	C256.682831,97.222412 251.777115,98.076584 245.954178,97.961983 
	C231.632278,97.680099 217.301102,97.864197 202.973663,97.880142 
	C201.478165,97.881805 199.936920,97.819443 198.505646,98.159882 
	C197.725372,98.345474 197.131683,99.315445 196.453827,99.931648 
	C197.067230,100.603310 197.564133,101.589966 198.322235,101.870316 
	C199.370682,102.258026 200.615738,102.185799 201.776718,102.186737 
	C218.769714,102.200455 235.762787,102.215607 252.755600,102.155975 
	C254.380325,102.150276 256.506775,102.210594 257.544586,101.282921 
	C263.826294,95.667847 269.859192,89.774361 276.604523,83.401581 
	C276.763367,68.766548 276.711548,54.124550 277.195251,39.500259 
	C277.364716,34.376663 275.810242,33.063194 270.762970,33.089741 
	C231.786026,33.294724 192.807541,33.202717 153.829529,33.202755 
	C152.035004,33.202755 150.240479,33.202755 148.538681,33.202755 
	C146.934174,38.645576 150.393677,37.971684 153.120331,37.972862 
	C191.098892,37.989281 229.077652,38.038498 267.055786,37.910381 
	C271.130463,37.896637 272.611237,39.018730 272.498077,43.240952 
	C272.230377,53.228199 272.165497,63.235710 272.508759,73.218170 
	C272.677094,78.112778 271.004364,79.388145 266.263367,79.355278 
	C237.947372,79.158943 209.628448,79.372330 181.312820,79.151718 
	C176.383423,79.113319 174.815323,80.255272 174.838623,85.472221 
	C175.052887,133.444183 174.964844,181.417511 174.963730,229.390442 
	C174.963684,230.889542 175.326813,232.528717 174.835022,233.846771 
	C174.380051,235.066086 173.038132,236.790009 172.027557,236.831009 
	C165.433090,237.098602 158.822479,236.968582 151.780350,236.968582 
	C151.780350,229.392746 151.706985,222.426758 151.809433,215.463364 
	C151.865784,211.633789 150.135483,211.411194 146.489517,212.961945 
	C146.489517,222.167099 146.489517,231.465652 145.823151,240.824341 
	C142.507431,243.847961 139.191696,246.871567 135.228500,249.914001 
	C134.585678,249.881912 133.942871,249.849823 133.264236,248.904404 
	C133.232468,204.333542 133.653473,159.754562 132.855103,115.197449 
	C132.651932,103.857925 136.181885,96.106331 145.277466,89.657669 
	C145.538681,89.492989 145.784546,89.307930 146.438141,89.099457 
	C146.438141,89.099457 146.855988,89.033127 146.954117,89.961739 
	C146.966949,122.098373 146.971085,154.235031 147.012207,186.371613 
	C147.014954,188.519012 147.298080,190.666061 147.330521,193.142792 
	C147.474503,193.031097 147.618484,192.919403 148.596085,192.794662 
	C151.948227,193.132614 151.793350,190.869141 151.792267,188.596161 
	C151.775574,153.676453 151.721909,118.756516 151.860901,83.837364 
	C151.876755,79.852791 150.263504,79.183685 146.817001,79.209785 
	C130.189529,79.335716 113.560455,79.300980 96.932190,79.248138 
	C89.294754,79.223877 81.657867,79.027283 74.028847,77.983566 
	C74.046188,70.799774 74.063530,63.615990 74.986626,56.222816 
	C132.460373,56.192867 189.934113,56.163284 247.407867,56.131153 
	C249.073532,56.130219 250.805099,56.371773 252.380280,55.986477 
	C253.334427,55.753094 254.046356,54.529461 254.867111,53.750725 
	C254.027374,52.973148 253.302078,51.794067 252.320480,51.514313 
	C250.929672,51.117916 249.349869,51.370056 247.850845,51.369972 
	C200.705017,51.367348 153.559174,51.367607 106.413345,51.367821 
	C95.251610,51.367870 84.086830,51.518665 72.929771,51.290688 
	C68.922127,51.208801 67.748795,52.611717 67.893089,56.476669 
	C68.153954,63.463833 67.961639,70.467735 67.968315,77.464630 
	C67.974564,84.020241 67.980148,84.014175 74.431717,84.035896 
	C97.250381,84.112717 120.069038,84.194061 142.769409,84.620972 
	C142.769409,84.620972 142.795059,84.986923 142.297958,84.945839 
	C142.297958,84.945839 141.803101,85.008377 141.546585,85.360825 
	C141.383835,85.604332 141.240738,85.858894 140.728256,86.661880 
	C139.346176,88.106010 137.798264,89.426422 136.611984,91.016624 
	C132.445969,96.601151 127.049797,98.184624 120.113327,98.033455 
	C100.124481,97.597832 80.119408,97.808197 60.122372,97.969872 
	C57.602856,97.990234 55.093254,99.237091 52.579063,99.915695 
	C55.016857,100.675163 57.449253,102.073120 59.893295,102.093788 
	C80.723427,102.269890 101.555695,102.179779 122.387268,102.206604 
	C128.547607,102.214539 128.782028,102.503738 128.838074,108.771889 
	C128.854477,110.604927 128.842209,112.438225 128.842255,114.271408 
	C128.843536,160.934219 128.883667,207.597107 128.783173,254.259705 
	C128.773575,258.722656 129.461197,261.752563 134.819092,261.711151 
	C147.149139,261.615784 159.482086,261.789185 171.809464,261.586090 
	C173.398621,261.559906 174.961655,259.948883 176.536789,259.072021 
	C174.906982,258.336700 173.289413,256.996918 171.645386,256.963623 
	C160.483902,256.737671 149.316833,256.787292 138.041321,256.111176 
	C137.963074,255.684998 137.884827,255.258835 138.225006,254.314835 
	C141.562317,250.434601 144.899612,246.554367 149.109238,242.397797 
	C157.257538,242.272461 165.421112,241.795776 173.548615,242.149002 
	C178.708740,242.373276 179.902634,240.714233 179.882751,235.705902 
	C179.690918,187.425674 179.767914,139.144379 179.768005,90.863388 
	C179.768005,88.769905 179.768005,86.676422 179.768005,84.107399 
	C209.962585,84.107399 239.389221,84.107399 268.799194,84.564537 
	C268.799194,84.564537 268.912445,85.007759 268.386017,85.397499 
z"/>
<path fill="#4BDF55" opacity="1.000000" stroke="none" 
	d="
M268.815857,84.107399 
	C239.389221,84.107399 209.962585,84.107399 179.768005,84.107399 
	C179.768005,86.676422 179.768005,88.769905 179.768005,90.863388 
	C179.767914,139.144379 179.690918,187.425674 179.882751,235.705902 
	C179.902634,240.714233 178.708740,242.373276 173.548615,242.149002 
	C165.421112,241.795776 157.257538,242.272461 148.407806,242.194626 
	C147.300751,241.582367 146.895126,241.173279 146.489517,240.764191 
	C146.489517,231.465652 146.489517,222.167099 146.489517,212.961945 
	C150.135483,211.411194 151.865784,211.633789 151.809433,215.463364 
	C151.706985,222.426758 151.780350,229.392746 151.780350,236.968582 
	C158.822479,236.968582 165.433090,237.098602 172.027557,236.831009 
	C173.038132,236.790009 174.380051,235.066086 174.835022,233.846771 
	C175.326813,232.528717 174.963684,230.889542 174.963730,229.390442 
	C174.964844,181.417511 175.052887,133.444183 174.838623,85.472221 
	C174.815323,80.255272 176.383423,79.113319 181.312820,79.151718 
	C209.628448,79.372330 237.947372,79.158943 266.263367,79.355278 
	C271.004364,79.388145 272.677094,78.112778 272.508759,73.218170 
	C272.165497,63.235710 272.230377,53.228199 272.498077,43.240952 
	C272.611237,39.018730 271.130463,37.896637 267.055786,37.910381 
	C229.077652,38.038498 191.098892,37.989281 153.120331,37.972862 
	C150.393677,37.971684 146.934174,38.645576 148.538681,33.202755 
	C150.240479,33.202755 152.035004,33.202755 153.829529,33.202755 
	C192.807541,33.202717 231.786026,33.294724 270.762970,33.089741 
	C275.810242,33.063194 277.364716,34.376663 277.195251,39.500259 
	C276.711548,54.124550 276.763367,68.766548 275.866394,83.630219 
	C273.417847,83.905243 271.707367,83.951637 269.699646,84.004013 
	C269.206879,84.042480 269.011383,84.074944 268.815857,84.107399 
z"/>
<path fill="#4CE056" opacity="1.000000" stroke="none" 
	d="
M142.887695,84.273689 
	C120.069038,84.194061 97.250381,84.112717 74.431717,84.035896 
	C67.980148,84.014175 67.974564,84.020241 67.968315,77.464630 
	C67.961639,70.467735 68.153954,63.463833 67.893089,56.476669 
	C67.748795,52.611717 68.922127,51.208801 72.929771,51.290688 
	C84.086830,51.518665 95.251610,51.367870 106.413345,51.367821 
	C153.559174,51.367607 200.705017,51.367348 247.850845,51.369972 
	C249.349869,51.370056 250.929672,51.117916 252.320480,51.514313 
	C253.302078,51.794067 254.027374,52.973148 254.867111,53.750725 
	C254.046356,54.529461 253.334427,55.753094 252.380280,55.986477 
	C250.805099,56.371773 249.073532,56.130219 247.407867,56.131153 
	C189.934113,56.163284 132.460373,56.192867 74.124290,56.295135 
	C72.867966,56.811604 72.137497,57.250618 72.130638,57.700665 
	C72.033318,64.085236 71.972107,70.472527 72.099640,76.855225 
	C72.113564,77.552277 73.350868,78.224884 74.020737,78.908836 
	C81.657867,79.027283 89.294754,79.223877 96.932190,79.248138 
	C113.560455,79.300980 130.189529,79.335716 146.817001,79.209785 
	C150.263504,79.183685 151.876755,79.852791 151.860901,83.837364 
	C151.721909,118.756516 151.775574,153.676453 151.792267,188.596161 
	C151.793350,190.869141 151.948227,193.132614 148.100159,192.734085 
	C147.604248,192.673508 147.450806,192.813263 147.450806,192.813263 
	C147.298080,190.666061 147.014954,188.519012 147.012207,186.371613 
	C146.971085,154.235031 146.966949,122.098373 146.995163,89.168716 
	C146.980652,87.925751 146.925110,87.475807 147.016327,86.760101 
	C147.387604,82.578072 145.365356,82.987457 142.887695,84.273689 
z"/>
<path fill="#0F5C15" opacity="1.000000" stroke="none" 
	d="
M146.869553,87.025871 
	C146.925110,87.475807 146.980652,87.925751 146.946106,88.704407 
	C146.855988,89.033127 146.438141,89.099457 146.014175,89.195572 
	C145.317871,89.449867 145.079666,89.648926 144.875626,89.888855 
	C136.181885,96.106331 132.651932,103.857925 132.855103,115.197449 
	C133.653473,159.754562 133.232468,204.333542 133.314850,249.606262 
	C134.202316,250.170471 135.039139,250.032837 135.875961,249.895172 
	C139.191696,246.871567 142.507431,243.847961 146.156342,240.794266 
	C146.895126,241.173279 147.300751,241.582367 147.971634,242.332794 
	C144.899612,246.554367 141.562317,250.434601 137.838181,254.696869 
	C137.684769,255.635239 137.918167,256.191559 138.151581,256.747894 
	C149.316833,256.787292 160.483902,256.737671 171.645386,256.963623 
	C173.289413,256.996918 174.906982,258.336700 176.536789,259.072021 
	C174.961655,259.948883 173.398621,261.559906 171.809464,261.586090 
	C159.482086,261.789185 147.149139,261.615784 134.819092,261.711151 
	C129.461197,261.752563 128.773575,258.722656 128.783173,254.259705 
	C128.883667,207.597107 128.843536,160.934219 128.842255,114.271408 
	C128.842209,112.438225 128.854477,110.604927 128.838074,108.771889 
	C128.782028,102.503738 128.547607,102.214539 122.387268,102.206604 
	C101.555695,102.179779 80.723427,102.269890 59.893295,102.093788 
	C57.449253,102.073120 55.016857,100.675163 52.579063,99.915688 
	C55.093254,99.237091 57.602856,97.990234 60.122372,97.969872 
	C80.119408,97.808197 100.124481,97.597832 120.113327,98.033455 
	C127.049797,98.184624 132.445969,96.601151 136.611984,91.016624 
	C137.798264,89.426422 139.346176,88.106010 141.073853,86.230118 
	C141.605270,85.563156 141.733154,85.299835 141.803101,85.008377 
	C141.803101,85.008377 142.297958,84.945839 142.892471,85.001778 
	C144.614502,85.713768 145.742035,86.369820 146.869553,87.025871 
z"/>
<path fill="#0F5A15" opacity="1.000000" stroke="none" 
	d="
M269.996918,83.998016 
	C271.707367,83.951637 273.417847,83.905243 275.551758,83.916389 
	C269.859192,89.774361 263.826294,95.667847 257.544586,101.282921 
	C256.506775,102.210594 254.380325,102.150276 252.755600,102.155975 
	C235.762787,102.215607 218.769714,102.200455 201.776718,102.186737 
	C200.615738,102.185799 199.370682,102.258026 198.322235,101.870316 
	C197.564133,101.589966 197.067230,100.603310 196.453827,99.931656 
	C197.131683,99.315445 197.725372,98.345474 198.505646,98.159882 
	C199.936920,97.819443 201.478165,97.881805 202.973663,97.880142 
	C217.301102,97.864197 231.632278,97.680099 245.954178,97.961983 
	C251.777115,98.076584 256.682831,97.222412 260.604401,92.404007 
	C262.781342,89.729179 265.765625,87.711418 268.880981,85.091309 
	C269.582916,84.522751 269.789917,84.260384 269.996918,83.998016 
z"/>
<path fill="#0E3110" opacity="1.000000" stroke="none" 
	d="
M74.024796,78.446198 
	C73.350868,78.224884 72.113564,77.552277 72.099640,76.855225 
	C71.972107,70.472527 72.033318,64.085236 72.130638,57.700665 
	C72.137497,57.250618 72.867966,56.811604 73.671417,56.399830 
	C74.063530,63.615990 74.046188,70.799774 74.024796,78.446198 
z"/>
<path fill="#3BB243" opacity="1.000000" stroke="none" 
	d="
M147.016327,86.760101 
	C145.742035,86.369820 144.614502,85.713768 143.141022,85.022324 
	C142.795059,84.986923 142.769409,84.620972 142.828552,84.447327 
	C145.365356,82.987457 147.387604,82.578072 147.016327,86.760101 
z"/>
<path fill="#082F0B" opacity="1.000000" stroke="none" 
	d="
M135.552231,249.904602 
	C135.039139,250.032837 134.202316,250.170471 133.332764,250.062927 
	C133.942871,249.849823 134.585678,249.881912 135.552231,249.904602 
z"/>
<path fill="#082F0B" opacity="1.000000" stroke="none" 
	d="
M138.096451,256.429535 
	C137.918167,256.191559 137.684769,255.635239 137.628967,254.955780 
	C137.884827,255.258835 137.963074,255.684998 138.096451,256.429535 
z"/>
<path fill="#3BB243" opacity="1.000000" stroke="none" 
	d="
M269.699646,84.004013 
	C269.789917,84.260384 269.582916,84.522751 269.144196,84.896439 
	C268.912445,85.007759 268.799194,84.564537 268.807526,84.335968 
	C269.011383,84.074944 269.206879,84.042480 269.699646,84.004013 
z"/>
<path fill="#082F0B" opacity="1.000000" stroke="none" 
	d="
M141.674835,85.184601 
	C141.733154,85.299835 141.605270,85.563156 141.268372,85.961426 
	C141.240738,85.858894 141.383835,85.604332 141.674835,85.184601 
z"/>
<path fill="#082F0B" opacity="1.000000" stroke="none" 
	d="
M145.076538,89.773262 
	C145.079666,89.648926 145.317871,89.449867 145.802643,89.197083 
	C145.784546,89.307930 145.538681,89.492989 145.076538,89.773262 
z"/>
<path fill="#349E3C" opacity="1.000000" stroke="none" 
	d="
M147.390656,192.978027 
	C147.450806,192.813263 147.604248,192.673508 147.683365,192.740601 
	C147.618484,192.919403 147.474503,193.031097 147.390656,192.978027 
z"/>
</svg>